<svg width="141" height="74" viewBox="0 0 141 74" fill="none" xmlns="http://www.w3.org/2000/svg">
<path d="M19.7875 50.16C17.7075 50.16 15.8408 49.68 14.1875 48.72C12.5342 47.7333 11.2275 46.4 10.2675 44.72C9.3075 43.04 8.81417 41.1467 8.7875 39.04V20.8C8.7875 20.1867 8.97417 19.6933 9.3475 19.32C9.7475 18.9467 10.2408 18.76 10.8275 18.76C11.4408 18.76 11.9342 18.9467 12.3075 19.32C12.6808 19.6933 12.8675 20.1867 12.8675 20.8V31.6C13.8008 30.48 14.9208 29.6 16.2275 28.96C17.5608 28.2933 19.0142 27.96 20.5875 27.96C22.5342 27.96 24.2808 28.4533 25.8275 29.44C27.3742 30.4 28.5875 31.72 29.4675 33.4C30.3742 35.0533 30.8275 36.9333 30.8275 39.04C30.8275 41.1467 30.3342 43.04 29.3475 44.72C28.3875 46.4 27.0808 47.7333 25.4275 48.72C23.7742 49.68 21.8942 50.16 19.7875 50.16ZM19.7875 46.56C21.1475 46.56 22.3608 46.24 23.4275 45.6C24.4942 44.9333 25.3342 44.0267 25.9475 42.88C26.5875 41.7333 26.9075 40.4533 26.9075 39.04C26.9075 37.6 26.5875 36.32 25.9475 35.2C25.3342 34.08 24.4942 33.2 23.4275 32.56C22.3608 31.8933 21.1475 31.56 19.7875 31.56C18.4542 31.56 17.2408 31.8933 16.1475 32.56C15.0808 33.2 14.2408 34.08 13.6275 35.2C13.0142 36.32 12.7075 37.6 12.7075 39.04C12.7075 40.4533 13.0142 41.7333 13.6275 42.88C14.2408 44.0267 15.0808 44.9333 16.1475 45.6C17.2408 46.24 18.4542 46.56 19.7875 46.56ZM42.1125 50C40.9392 50 39.8992 49.68 38.9925 49.04C38.0858 48.4 37.3792 47.5333 36.8725 46.44C36.3658 45.32 36.1125 44.04 36.1125 42.6V20.76C36.1125 20.1733 36.2992 19.6933 36.6725 19.32C37.0458 18.9467 37.5258 18.76 38.1125 18.76C38.6992 18.76 39.1792 18.9467 39.5525 19.32C39.9258 19.6933 40.1125 20.1733 40.1125 20.76V42.6C40.1125 43.5867 40.2992 44.4 40.6725 45.04C41.0458 45.68 41.5258 46 42.1125 46H43.1125C43.6458 46 44.0725 46.1867 44.3925 46.56C44.7392 46.9333 44.9125 47.4133 44.9125 48C44.9125 48.5867 44.6592 49.0667 44.1525 49.44C43.6458 49.8133 42.9925 50 42.1925 50H42.1125ZM57.6138 50.16C55.4538 50.16 53.5471 49.6933 51.8938 48.76C50.2404 47.8 48.9338 46.4933 47.9738 44.84C47.0404 43.16 46.5738 41.24 46.5738 39.08C46.5738 36.8933 47.0404 34.9733 47.9738 33.32C48.9338 31.64 50.2404 30.3333 51.8938 29.4C53.5471 28.44 55.4538 27.96 57.6138 27.96C59.7471 27.96 61.6404 28.44 63.2938 29.4C64.9471 30.3333 66.2404 31.64 67.1738 33.32C68.1338 34.9733 68.6138 36.8933 68.6138 39.08C68.6138 41.24 68.1471 43.16 67.2138 44.84C66.2804 46.4933 64.9871 47.8 63.3338 48.76C61.6804 49.6933 59.7738 50.16 57.6138 50.16ZM57.6138 46.56C59.0004 46.56 60.2271 46.24 61.2938 45.6C62.3604 44.96 63.1871 44.08 63.7738 42.96C64.3871 41.84 64.6938 40.5467 64.6938 39.08C64.6938 37.6133 64.3871 36.32 63.7738 35.2C63.1871 34.0533 62.3604 33.16 61.2938 32.52C60.2271 31.88 59.0004 31.56 57.6138 31.56C56.2271 31.56 55.0004 31.88 53.9338 32.52C52.8671 33.16 52.0271 34.0533 51.4138 35.2C50.8004 36.32 50.4938 37.6133 50.4938 39.08C50.4938 40.5467 50.8004 41.84 51.4138 42.96C52.0271 44.08 52.8671 44.96 53.9338 45.6C55.0004 46.24 56.2271 46.56 57.6138 46.56ZM83.8059 50.16C81.8059 50.16 80.0326 49.6933 78.4859 48.76C76.9659 47.8 75.7659 46.4933 74.8859 44.84C74.0059 43.16 73.5659 41.24 73.5659 39.08C73.5659 36.8933 74.0326 34.9733 74.9659 33.32C75.9259 31.64 77.2326 30.3333 78.8859 29.4C80.5393 28.44 82.4459 27.96 84.6059 27.96C86.7393 27.96 88.6326 28.44 90.2859 29.4C91.9393 30.3333 93.2326 31.64 94.1659 33.32C95.1259 34.9733 95.6059 36.8933 95.6059 39.08H93.2459C93.2459 41.24 92.8326 43.16 92.0059 44.84C91.2059 46.4933 90.0993 47.8 88.6859 48.76C87.2726 49.6933 85.6459 50.16 83.8059 50.16ZM84.5259 59.08C82.6326 59.08 80.8593 58.7067 79.2059 57.96C77.5526 57.2133 76.1526 56.12 75.0059 54.68C74.6593 54.2267 74.5259 53.76 74.6059 53.28C74.7126 52.8 74.9793 52.4133 75.4059 52.12C75.8859 51.8 76.3793 51.6933 76.8859 51.8C77.4193 51.9067 77.8459 52.1733 78.1659 52.6C78.8859 53.5067 79.7926 54.2133 80.8859 54.72C81.9793 55.2267 83.2193 55.48 84.6059 55.48C85.8859 55.48 87.0593 55.1733 88.1259 54.56C89.2193 53.9467 90.0859 53.04 90.7259 51.84C91.3659 50.64 91.6859 49.1733 91.6859 47.44V41.76L93.0059 38.24L95.6059 39.08V47.72C95.6059 49.8267 95.1393 51.7333 94.2059 53.44C93.2726 55.1733 91.9659 56.5467 90.2859 57.56C88.6326 58.5733 86.7126 59.08 84.5259 59.08ZM84.6059 46.56C85.9926 46.56 87.2193 46.24 88.2859 45.6C89.3526 44.96 90.1793 44.08 90.7659 42.96C91.3793 41.84 91.6859 40.5467 91.6859 39.08C91.6859 37.6133 91.3793 36.32 90.7659 35.2C90.1793 34.0533 89.3526 33.16 88.2859 32.52C87.2193 31.88 85.9926 31.56 84.6059 31.56C83.2193 31.56 81.9926 31.88 80.9259 32.52C79.8593 33.16 79.0193 34.0533 78.4059 35.2C77.7926 36.32 77.4859 37.6133 77.4859 39.08C77.4859 40.5467 77.7926 41.84 78.4059 42.96C79.0193 44.08 79.8593 44.96 80.9259 45.6C81.9926 46.24 83.2193 46.56 84.6059 46.56ZM104.158 50C103.571 50 103.078 49.8 102.678 49.4C102.278 49 102.078 48.5067 102.078 47.92V20.84C102.078 20.2267 102.278 19.7333 102.678 19.36C103.078 18.96 103.571 18.76 104.158 18.76C104.771 18.76 105.265 18.96 105.638 19.36C106.038 19.7333 106.238 20.2267 106.238 20.84V47.92C106.238 48.5067 106.038 49 105.638 49.4C105.265 49.8 104.771 50 104.158 50ZM121.787 50C120.453 50 119.253 49.6667 118.187 49C117.12 48.3067 116.28 47.3733 115.667 46.2C115.053 45.0267 114.747 43.7067 114.747 42.24V23.16C114.747 22.5733 114.933 22.0933 115.307 21.72C115.68 21.3467 116.16 21.16 116.747 21.16C117.333 21.16 117.813 21.3467 118.187 21.72C118.56 22.0933 118.747 22.5733 118.747 23.16V42.24C118.747 43.3067 119.04 44.2 119.627 44.92C120.213 45.64 120.933 46 121.787 46H123.147C123.627 46 124.027 46.1867 124.347 46.56C124.693 46.9333 124.867 47.4133 124.867 48C124.867 48.5867 124.64 49.0667 124.187 49.44C123.76 49.8133 123.2 50 122.507 50H121.787ZM112.907 32.36C112.347 32.36 111.893 32.2 111.547 31.88C111.2 31.56 111.027 31.16 111.027 30.68C111.027 30.1467 111.2 29.72 111.547 29.4C111.893 29.08 112.347 28.92 112.907 28.92H122.147C122.707 28.92 123.16 29.08 123.507 29.4C123.853 29.72 124.027 30.1467 124.027 30.68C124.027 31.16 123.853 31.56 123.507 31.88C123.16 32.2 122.707 32.36 122.147 32.36H112.907Z" fill="white"/>
<path d="M131.041 50.64C130.295 50.64 129.641 50.3733 129.081 49.84C128.548 49.28 128.281 48.6267 128.281 47.88C128.281 47.1067 128.548 46.4533 129.081 45.92C129.641 45.36 130.295 45.08 131.041 45.08C131.815 45.08 132.468 45.36 133.001 45.92C133.535 46.4533 133.801 47.1067 133.801 47.88C133.801 48.6267 133.535 49.28 133.001 49.84C132.468 50.3733 131.815 50.64 131.041 50.64Z" fill="#FF3B1D"/>
</svg>
