<svg width="392" height="399" viewBox="0 0 392 399" fill="none" xmlns="http://www.w3.org/2000/svg">
<g filter="url(#filter0_i_1_2)">
<path d="M138.5 393.5C112.5 393.5 89 387.5 68 375.5C47.3333 363.5 30.8333 347.167 18.5 326.5C6.5 305.5 0.333336 282 1.78814e-06 256V20C1.78814e-06 14 1.66667 9.33331 5 5.99998C8.66667 2.33332 13.5 0.499991 19.5 0.499991C25.1667 0.499991 29.6667 2.33332 33 5.99998C36.6667 9.33331 38.5 14 38.5 20V167C49.5 151.333 64 138.833 82 129.5C100.333 119.833 120.667 115 143 115C168.667 115 191.667 121.167 212 133.5C232.333 145.5 248.333 162 260 183C272 204 278 227.667 278 254C278 280.667 271.833 304.5 259.5 325.5C247.5 346.5 231 363.167 210 375.5C189 387.5 165.167 393.5 138.5 393.5ZM138.5 358.5C157.833 358.5 175.167 354 190.5 345C205.833 335.667 217.833 323.167 226.5 307.5C235.5 291.833 240 274 240 254C240 234.333 235.5 216.667 226.5 201C217.833 185 205.833 172.5 190.5 163.5C175.167 154.5 157.833 150 138.5 150C119.5 150 102.333 154.5 87 163.5C71.6667 172.5 59.6667 185 51 201C42.3333 216.667 38 234.333 38 254C38 274 42.3333 291.833 51 307.5C59.6667 323.167 71.6667 335.667 87 345C102.333 354 119.5 358.5 138.5 358.5Z" fill="#FF2200"/>
<path d="M362.516 399C354.516 399 347.682 396.167 342.016 390.5C336.349 384.833 333.516 378 333.516 370C333.516 361.667 336.349 354.667 342.016 349C348.016 343.333 354.849 340.5 362.516 340.5C370.516 340.5 377.349 343.5 383.016 349.5C388.682 355.167 391.516 362 391.516 370C391.516 377.667 388.682 384.5 383.016 390.5C377.682 396.167 370.849 399 362.516 399Z" fill="white"/>
</g>
<defs>
<filter id="filter0_i_1_2" x="0" y="0.499992" width="391.516" height="402.5" filterUnits="userSpaceOnUse" color-interpolation-filters="sRGB">
<feFlood flood-opacity="0" result="BackgroundImageFix"/>
<feBlend mode="normal" in="SourceGraphic" in2="BackgroundImageFix" result="shape"/>
<feColorMatrix in="SourceAlpha" type="matrix" values="0 0 0 0 0 0 0 0 0 0 0 0 0 0 0 0 0 0 127 0" result="hardAlpha"/>
<feOffset dy="4"/>
<feGaussianBlur stdDeviation="2"/>
<feComposite in2="hardAlpha" operator="arithmetic" k2="-1" k3="1"/>
<feColorMatrix type="matrix" values="0 0 0 0 0 0 0 0 0 0 0 0 0 0 0 0 0 0 0.25 0"/>
<feBlend mode="normal" in2="shape" result="effect1_innerShadow_1_2"/>
</filter>
</defs>
</svg>
