<svg width="443" height="247" viewBox="0 0 443 247" fill="none" xmlns="http://www.w3.org/2000/svg">
<g filter="url(#filter0_i_1_2)">
<path d="M62.5331 197.6C59.1198 197.6 55.7065 196.853 52.2931 195.36C48.9865 193.76 45.7865 191.627 42.6931 188.96V196H16.6131V66.4H42.6931V110.24C45.8931 107.467 49.1998 105.387 52.6131 104C56.1331 102.613 59.5465 101.92 62.8531 101.92C66.3731 101.92 69.3598 102.613 71.8131 104C74.3731 105.387 76.4531 107.36 78.0531 109.92C79.6531 112.373 80.8265 115.253 81.5731 118.56C82.3198 121.867 82.6931 125.387 82.6931 129.12V168.96C82.6931 174.72 81.8931 179.733 80.2931 184C78.7998 188.267 76.5598 191.627 73.5731 194.08C70.5865 196.427 66.9065 197.6 62.5331 197.6ZM49.8931 180.8C51.5998 180.8 52.9331 180.32 53.8931 179.36C54.8531 178.4 55.5465 177.173 55.9731 175.68C56.3998 174.08 56.6131 172.32 56.6131 170.4V127.2C56.6131 125.387 56.3998 123.787 55.9731 122.4C55.5465 120.907 54.8531 119.733 53.8931 118.88C53.0398 118.027 51.8131 117.6 50.2131 117.6C48.8265 117.6 47.4931 117.92 46.2131 118.56C45.0398 119.093 43.8665 119.787 42.6931 120.64V178.24C43.8665 178.987 45.0398 179.627 46.2131 180.16C47.4931 180.587 48.7198 180.8 49.8931 180.8ZM98.6706 196V66.4H124.591V196H98.6706ZM171.857 197.6C165.244 197.6 159.484 196.48 154.577 194.24C149.777 192 146.044 188.64 143.377 184.16C140.817 179.68 139.537 174.08 139.537 167.36V132.16C139.537 125.44 140.817 119.84 143.377 115.36C146.044 110.88 149.777 107.52 154.577 105.28C159.484 103.04 165.244 101.92 171.857 101.92C178.47 101.92 184.177 103.04 188.977 105.28C193.884 107.52 197.67 110.88 200.337 115.36C203.004 119.84 204.337 125.44 204.337 132.16V167.36C204.337 174.08 203.004 179.68 200.337 184.16C197.67 188.64 193.884 192 188.977 194.24C184.177 196.48 178.47 197.6 171.857 197.6ZM172.017 180.32C173.724 180.32 175.057 179.893 176.017 179.04C176.977 178.08 177.617 176.8 177.937 175.2C178.364 173.493 178.577 171.467 178.577 169.12V130.4C178.577 128.053 178.364 126.08 177.937 124.48C177.617 122.773 176.977 121.493 176.017 120.64C175.057 119.68 173.724 119.2 172.017 119.2C170.31 119.2 168.977 119.68 168.017 120.64C167.057 121.493 166.364 122.773 165.937 124.48C165.51 126.08 165.297 128.053 165.297 130.4V169.12C165.297 171.467 165.51 173.493 165.937 175.2C166.364 176.8 167.057 178.08 168.017 179.04C168.977 179.893 170.31 180.32 172.017 180.32ZM248.881 228C241.947 228 235.921 227.307 230.801 225.92C225.681 224.533 221.681 222.453 218.801 219.68C216.027 216.907 214.641 213.387 214.641 209.12C214.641 206.24 215.227 203.627 216.401 201.28C217.681 199.04 219.387 197.067 221.521 195.36C223.761 193.547 226.267 192 229.041 190.72C224.987 189.547 221.841 187.787 219.601 185.44C217.361 183.093 216.241 179.947 216.241 176C216.241 172.267 217.147 169.067 218.961 166.4C220.774 163.627 223.281 160.853 226.481 158.08C223.494 155.413 221.201 152.16 219.601 148.32C218.107 144.373 217.361 139.627 217.361 134.08C217.361 127.147 218.641 121.28 221.201 116.48C223.761 111.68 227.494 108.053 232.401 105.6C237.414 103.147 243.441 101.92 250.481 101.92C255.281 101.92 259.494 102.507 263.121 103.68C266.747 104.853 269.841 106.667 272.401 109.12C273.574 107.307 275.121 105.547 277.041 103.84C278.961 102.133 281.147 100.693 283.601 99.52L286.961 97.92L293.041 110.4C292.081 110.72 290.747 111.253 289.041 112C287.334 112.747 285.521 113.547 283.601 114.4C281.787 115.253 280.134 116.107 278.641 116.96C279.814 119.307 280.721 121.973 281.361 124.96C282.001 127.947 282.321 131.04 282.321 134.24C282.321 140.853 281.094 146.56 278.641 151.36C276.294 156.16 272.774 159.84 268.081 162.4C263.387 164.853 257.521 166.08 250.481 166.08C247.494 166.08 244.667 165.867 242.001 165.44C239.334 164.907 236.881 164.267 234.641 163.52C234.001 164.373 233.414 165.28 232.881 166.24C232.454 167.093 232.241 168.053 232.241 169.12C232.241 170.4 232.881 171.413 234.161 172.16C235.441 172.907 237.734 173.493 241.041 173.92L265.361 176.64C273.254 177.493 279.067 180.053 282.801 184.32C286.534 188.48 288.401 193.973 288.401 200.8C288.401 206.667 287.067 211.627 284.401 215.68C281.841 219.733 277.627 222.773 271.761 224.8C266.001 226.933 258.374 228 248.881 228ZM252.241 209.12C258.107 209.12 262.587 208.64 265.681 207.68C268.881 206.72 270.481 204.747 270.481 201.76C270.481 200.267 270.054 199.04 269.201 198.08C268.347 197.227 266.907 196.533 264.881 196C262.961 195.36 260.187 194.88 256.561 194.56L239.441 192.8C238.374 193.547 237.414 194.4 236.561 195.36C235.814 196.213 235.174 197.12 234.641 198.08C234.214 199.147 234.001 200.267 234.001 201.44C234.001 204 235.387 205.92 238.161 207.2C240.934 208.48 245.627 209.12 252.241 209.12ZM250.481 150.56C251.974 150.56 253.201 150.293 254.161 149.76C255.121 149.12 255.814 148.16 256.241 146.88C256.774 145.6 257.147 143.893 257.361 141.76C257.574 139.627 257.681 137.067 257.681 134.08C257.681 130.987 257.574 128.427 257.361 126.4C257.147 124.267 256.774 122.56 256.241 121.28C255.814 119.893 255.121 118.933 254.161 118.4C253.201 117.76 251.974 117.44 250.481 117.44C248.987 117.44 247.761 117.76 246.801 118.4C245.841 118.933 245.094 119.84 244.561 121.12C244.134 122.4 243.814 124.107 243.601 126.24C243.387 128.373 243.281 130.987 243.281 134.08C243.281 137.067 243.387 139.627 243.601 141.76C243.814 143.787 244.134 145.493 244.561 146.88C245.094 148.16 245.841 149.12 246.801 149.76C247.761 150.293 248.987 150.56 250.481 150.56ZM300.557 196V66.4H329.197V196H300.557ZM375.722 196.96C368.789 196.96 363.402 195.947 359.562 193.92C355.829 191.893 353.269 188.96 351.882 185.12C350.495 181.173 349.802 176.427 349.802 170.88V120.64H340.842V103.52H349.802V75.36H376.202V103.52H389.322V120.64H376.202V168.32C376.202 170.987 376.949 172.907 378.442 174.08C380.042 175.253 382.015 175.84 384.362 175.84C385.749 175.84 387.029 175.787 388.202 175.68C389.375 175.467 390.442 175.307 391.402 175.2V195.68C390.015 195.893 387.829 196.16 384.842 196.48C381.855 196.8 378.815 196.96 375.722 196.96Z" fill="#FF3B1D"/>
<path d="M402.844 196V171.36H427.484V196H402.844Z" fill="white"/>
</g>
<defs>
<filter id="filter0_i_1_2" x="16.6131" y="66.4" width="410.871" height="165.6" filterUnits="userSpaceOnUse" color-interpolation-filters="sRGB">
<feFlood flood-opacity="0" result="BackgroundImageFix"/>
<feBlend mode="normal" in="SourceGraphic" in2="BackgroundImageFix" result="shape"/>
<feColorMatrix in="SourceAlpha" type="matrix" values="0 0 0 0 0 0 0 0 0 0 0 0 0 0 0 0 0 0 127 0" result="hardAlpha"/>
<feOffset dy="4"/>
<feGaussianBlur stdDeviation="2"/>
<feComposite in2="hardAlpha" operator="arithmetic" k2="-1" k3="1"/>
<feColorMatrix type="matrix" values="0 0 0 0 0 0 0 0 0 0 0 0 0 0 0 0 0 0 0.25 0"/>
<feBlend mode="normal" in2="shape" result="effect1_innerShadow_1_2"/>
</filter>
</defs>
</svg>
